<svg width="580" height="400" xmlns="http://www.w3.org/2000/svg">
 <!-- Created with Method Draw - http://github.com/duopixel/Method-Draw/ -->
 <g>
  <title>background</title>
  <rect fill="#fff" id="canvas_background" height="402" width="582" y="-1" x="-1"/>
  <g display="none" overflow="visible" y="0" x="0" height="100%" width="100%" id="canvasGrid">
   <rect fill="url(#gridpattern)" stroke-width="0" y="0" x="0" height="100%" width="100%"/>
  </g>
 </g>
 <g>
  <title>Layer 1</title>
  <path d="m61.5,256.453125c-1,0 -0.973248,0.229767 0,0c4.352501,-1.027481 10.673347,-5.031754 25,-9c9.828003,-2.722198 25.949707,-7.241531 35,-9c11.942184,-2.320374 17.893448,-2.997482 32,-4c6.982391,-0.496216 19.988785,-2.069824 26,-3c13.9758,-2.162628 20.006119,-2.221207 24,-2c9.041534,0.500763 11.875931,1.996582 24,3c5.979553,0.494888 16,1 22,1c6,0 7.937958,0.498291 14,1c1.993195,0.164963 8.884949,-2.274307 11,-3c4.823029,-1.654816 6,-1 7,-1c0,0 2.003418,-0.917526 3,-1c6.062042,-0.501709 7.256592,-3.418854 12,-5c1.897369,-0.632462 4.078156,-1.898514 8,-5c6.126099,-4.844666 7.486816,-7.62146 11,-10c6.306366,-4.269623 7.946716,-4.498734 15,-5c4.987427,-0.354446 7.080261,-0.689255 10,0c2.176239,0.513748 6.683716,4.343552 11,8c6.563751,5.560333 11.215118,6.360794 18,9c2.083954,0.810623 10.042389,1.580856 14,1c10.329651,-1.516068 16.053711,-5.744339 27,-16c6.727997,-6.303497 16.385284,-23.771729 21,-32c7.656525,-13.652023 11.238892,-21.890823 18,-37c3.110687,-6.951523 6.154419,-14.648689 14,-24c2.726898,-3.250244 4,-4 4,-4c0,0 2.078583,1.938133 6,7c6.124237,7.905312 17.526794,26.702225 23,37c7.768677,14.616699 9.51062,22.264008 14,30c1.809692,3.118484 2,5 2,5c1,2 0.585815,3.585785 2,5c0.707092,0.707108 1,0 1,1l0,0l1,0" id="svg_1" stroke-width="1.5" stroke="#000" fill="none"/>
 </g>
</svg>